<svg width="32" height="32" viewBox="0 0 32 32" fill="none" xmlns="http://www.w3.org/2000/svg">
<rect width="32" height="32" fill="white"/>
<path fill-rule="evenodd" clip-rule="evenodd" d="M13 8.5C13.163 8.50003 13.3215 8.55315 13.4516 8.6513C13.5817 8.74945 13.6762 8.8873 13.721 9.044L14.534 11.89C14.7091 12.5029 15.0375 13.0611 15.4882 13.5118C15.9389 13.9626 16.4971 14.291 17.11 14.466L19.956 15.279C20.1126 15.3239 20.2503 15.4185 20.3484 15.5486C20.4464 15.6786 20.4995 15.8371 20.4995 16C20.4995 16.1629 20.4464 16.3214 20.3484 16.4514C20.2503 16.5815 20.1126 16.6761 19.956 16.721L17.11 17.534C16.4971 17.709 15.9389 18.0374 15.4882 18.4882C15.0375 18.9389 14.7091 19.4971 14.534 20.11L13.721 22.956C13.6761 23.1126 13.5815 23.2503 13.4514 23.3484C13.3214 23.4464 13.1629 23.4995 13 23.4995C12.8371 23.4995 12.6786 23.4464 12.5486 23.3484C12.4185 23.2503 12.3239 23.1126 12.279 22.956L11.466 20.11C11.291 19.4971 10.9626 18.9389 10.5118 18.4882C10.0611 18.0374 9.50293 17.709 8.89001 17.534L6.04401 16.721C5.88741 16.6761 5.74968 16.5815 5.65163 16.4514C5.55358 16.3214 5.50055 16.1629 5.50055 16C5.50055 15.8371 5.55358 15.6786 5.65163 15.5486C5.74968 15.4185 5.88741 15.3239 6.04401 15.279L8.89001 14.466C9.50293 14.291 10.0611 13.9626 10.5118 13.5118C10.9626 13.0611 11.291 12.5029 11.466 11.89L12.279 9.044C12.3238 8.8873 12.4183 8.74945 12.5484 8.6513C12.6785 8.55315 12.837 8.50003 13 8.5ZM22 5.5C22.1673 5.49991 22.3299 5.55576 22.4618 5.65869C22.5937 5.76161 22.6874 5.90569 22.728 6.068L22.986 7.104C23.1019 7.56533 23.3407 7.98659 23.6771 8.32294C24.0134 8.65928 24.4347 8.89811 24.896 9.014L25.932 9.272C26.0946 9.31228 26.2391 9.40586 26.3423 9.5378C26.4456 9.66974 26.5017 9.83246 26.5017 10C26.5017 10.1675 26.4456 10.3303 26.3423 10.4622C26.2391 10.5941 26.0946 10.6877 25.932 10.728L24.896 10.986C24.4347 11.1019 24.0134 11.3407 23.6771 11.6771C23.3407 12.0134 23.1019 12.4347 22.986 12.896L22.728 13.932C22.6877 14.0946 22.5942 14.2391 22.4622 14.3423C22.3303 14.4456 22.1675 14.5017 22 14.5017C21.8325 14.5017 21.6698 14.4456 21.5378 14.3423C21.4059 14.2391 21.3123 14.0946 21.272 13.932L21.014 12.896C20.8986 12.4344 20.66 12.0129 20.3235 11.6765C19.9871 11.3401 19.5656 11.1014 19.104 10.986L18.068 10.728C17.9054 10.6877 17.7609 10.5941 17.6577 10.4622C17.5544 10.3303 17.4983 10.1675 17.4983 10C17.4983 9.83246 17.5544 9.66974 17.6577 9.5378C17.7609 9.40586 17.9054 9.31228 18.068 9.272L19.104 9.014C19.5656 8.89861 19.9871 8.65995 20.3235 8.32352C20.66 7.9871 20.8986 7.56557 21.014 7.104L21.272 6.068C21.3126 5.90569 21.4063 5.76161 21.5382 5.65869C21.6702 5.55576 21.8327 5.49991 22 5.5ZM20.5 19C20.6575 18.9999 20.8111 19.0494 20.9389 19.1415C21.0667 19.2336 21.1622 19.3636 21.212 19.513L21.606 20.696C21.756 21.143 22.106 21.495 22.554 21.644L23.737 22.039C23.886 22.089 24.0155 22.1845 24.1072 22.3121C24.199 22.4397 24.2483 22.5929 24.2483 22.75C24.2483 22.9071 24.199 23.0603 24.1072 23.1879C24.0155 23.3155 23.886 23.411 23.737 23.461L22.554 23.856C22.3333 23.9297 22.1327 24.0537 21.9682 24.2182C21.8037 24.3827 21.6797 24.5833 21.606 24.804L21.211 25.987C21.161 26.136 21.0655 26.2655 20.9379 26.3572C20.8103 26.4489 20.6571 26.4983 20.5 26.4983C20.3429 26.4983 20.1897 26.4489 20.0621 26.3572C19.9346 26.2655 19.839 26.136 19.789 25.987L19.394 24.804C19.3203 24.5833 19.1963 24.3827 19.0318 24.2182C18.8673 24.0537 18.6667 23.9297 18.446 23.856L17.263 23.461C17.114 23.411 16.9845 23.3155 16.8928 23.1879C16.8011 23.0603 16.7517 22.9071 16.7517 22.75C16.7517 22.5929 16.8011 22.4397 16.8928 22.3121C16.9845 22.1845 17.114 22.089 17.263 22.039L18.446 21.644C18.6667 21.5703 18.8673 21.4463 19.0318 21.2818C19.1963 21.1173 19.3203 20.9167 19.394 20.696L19.789 19.513C19.8387 19.3637 19.9341 19.2339 20.0617 19.1418C20.1893 19.0497 20.3427 19.0001 20.5 19Z" fill="#292E65"/>
</svg>
