<svg width="256" height="256" viewBox="0 0 256 256" fill="none" xmlns="http://www.w3.org/2000/svg">
<rect width="256" height="256" fill="white"/>
<path fill-rule="evenodd" clip-rule="evenodd" d="M97.875 53.4375C99.4842 53.4378 101.05 53.9623 102.334 54.9316C103.619 55.9008 104.553 57.2621 104.995 58.8095L113.023 86.9137C114.752 92.9663 117.995 98.4784 122.446 102.929C126.897 107.38 132.409 110.623 138.461 112.352L166.565 120.38C168.112 120.823 169.472 121.758 170.44 123.042C171.408 124.327 171.932 125.891 171.932 127.5C171.932 129.109 171.408 130.673 170.44 131.958C169.472 133.242 168.112 134.177 166.565 134.62L138.461 142.648C132.409 144.377 126.897 147.62 122.446 152.071C117.995 156.522 114.752 162.034 113.023 168.086L104.995 196.19C104.552 197.737 103.617 199.097 102.333 200.065C101.048 201.033 99.4836 201.557 97.875 201.557C96.2664 201.557 94.7016 201.033 93.417 200.065C92.1325 199.097 91.1981 197.737 90.7551 196.19L82.7267 168.086C80.9981 162.034 77.7552 156.522 73.3043 152.071C68.8533 147.62 63.3413 144.377 57.2887 142.648L29.1845 134.62C27.6381 134.177 26.278 133.242 25.3098 131.958C24.3415 130.673 23.8178 129.109 23.8178 127.5C23.8178 125.891 24.3415 124.327 25.3098 123.042C26.278 121.758 27.6381 120.823 29.1845 120.38L57.2887 112.352C63.3413 110.623 68.8533 107.38 73.3043 102.929C77.7552 98.4784 80.9981 92.9663 82.7267 86.9137L90.7551 58.8095C91.1971 57.2621 92.1311 55.9008 93.4157 54.9316C94.7004 53.9623 96.2657 53.4378 97.875 53.4375ZM186.75 23.8125C188.402 23.8116 190.007 24.3632 191.31 25.3795C192.613 26.3959 193.538 27.8186 193.939 29.4215L196.487 39.652C197.631 44.2076 199.99 48.3676 203.311 51.689C206.632 55.0104 210.792 57.3689 215.348 58.5132L225.578 61.061C227.184 61.4588 228.611 62.3828 229.631 63.6858C230.65 64.9887 231.204 66.5955 231.204 68.25C231.204 69.9045 230.65 71.5113 229.631 72.8142C228.611 74.1172 227.184 75.0412 225.578 75.439L215.348 77.9868C210.792 79.1311 206.632 81.4896 203.311 84.811C199.99 88.1324 197.631 92.2924 196.487 96.848L193.939 107.079C193.541 108.684 192.617 110.111 191.314 111.131C190.011 112.15 188.404 112.704 186.75 112.704C185.096 112.704 183.489 112.15 182.186 111.131C180.883 110.111 179.959 108.684 179.561 107.079L177.013 96.848C175.874 92.29 173.517 88.1274 170.195 84.8052C166.873 81.483 162.71 79.1262 158.152 77.9868L147.921 75.439C146.316 75.0412 144.889 74.1172 143.869 72.8142C142.85 71.5113 142.296 69.9045 142.296 68.25C142.296 66.5955 142.85 64.9887 143.869 63.6858C144.889 62.3828 146.316 61.4588 147.921 61.061L158.152 58.5132C162.71 57.3738 166.873 55.017 170.195 51.6948C173.517 48.3726 175.874 44.21 177.013 39.652L179.561 29.4215C179.962 27.8186 180.887 26.3959 182.19 25.3795C183.493 24.3632 185.098 23.8116 186.75 23.8125ZM171.937 157.125C173.493 157.124 175.009 157.613 176.271 158.522C177.533 159.432 178.477 160.715 178.968 162.191L182.859 173.873C184.341 178.287 187.797 181.763 192.221 183.234L203.903 187.135C205.374 187.629 206.653 188.572 207.559 189.832C208.465 191.092 208.952 192.605 208.952 194.156C208.952 195.708 208.465 197.22 207.559 198.48C206.653 199.74 205.374 200.684 203.903 201.177L192.221 205.078C190.041 205.805 188.061 207.03 186.436 208.655C184.811 210.279 183.587 212.26 182.859 214.44L178.959 226.122C178.465 227.593 177.521 228.871 176.262 229.777C175.002 230.683 173.489 231.171 171.937 231.171C170.386 231.171 168.873 230.683 167.613 229.777C166.354 228.871 165.41 227.593 164.916 226.122L161.016 214.44C160.288 212.26 159.064 210.279 157.439 208.655C155.814 207.03 153.834 205.805 151.654 205.078L139.972 201.177C138.501 200.684 137.222 199.74 136.316 198.48C135.41 197.22 134.923 195.708 134.923 194.156C134.923 192.605 135.41 191.092 136.316 189.832C137.222 188.572 138.501 187.629 139.972 187.135L151.654 183.234C153.834 182.507 155.814 181.283 157.439 179.658C159.064 178.033 160.288 176.053 161.016 173.873L164.916 162.191C165.407 160.717 166.35 159.434 167.61 158.525C168.87 157.616 170.384 157.126 171.937 157.125Z" fill="#292E65"/>
</svg>
